<!--?xml version="1.0" encoding="UTF-8"?-->
<svg width="246px" height="246px" viewBox="0 0 246 246" version="1.1" xmlns="http://www.w3.org/2000/svg" xmlns:xlink="http://www.w3.org/1999/xlink" style="">
    <title>Illustration/数据</title>
    <defs>
        <filter x="-36.7%" y="-46.4%" width="173.4%" height="192.7%" filterUnits="objectBoundingBox" id="filter-1">
            <feGaussianBlur stdDeviation="17" in="SourceGraphic"></feGaussianBlur>
        </filter>
        <filter x="-187.5%" y="-187.5%" width="475.0%" height="475.0%" filterUnits="objectBoundingBox" id="filter-2">
            <feGaussianBlur stdDeviation="10" in="SourceGraphic"></feGaussianBlur>
        </filter>
        <linearGradient x1="50%" y1="0%" x2="50%" y2="100%" id="linearGradient-3">
            <stop stop-color="#92B7FF" offset="0%"></stop>
            <stop stop-color="#ECE1F7" stop-opacity="0" offset="100%"></stop>
        </linearGradient>
    </defs>
    <g id="Illustration/数据" stroke="none" stroke-width="1" fill="none" fill-rule="evenodd">
        <g id="数据">
            <path id="矩形备份-27" fill-opacity="0" fill="#D8D8D8" width="246" height="246" d="M0 0 L246 0 L246 246 L0 246 Z" class="cltKwkgI_0"></path>
            <g id="img_yinliuillustration" transform="translate(17.000000, 17.000000)">
                <path id="矩形备份-15" fill-opacity="0" fill="#D8D8D8" width="212" height="212" d="M0 0 L212 0 L212 212 L0 212 Z" class="cltKwkgI_1"></path>
                <g id="编组-18" transform="translate(1.000000, 4.000000)">
                    <path id="椭圆形" fill="#E1E8F1" opacity="0.400000006" d="M16,99A97,97 0,1,1 210,99A97,97 0,1,1 16,99" class="cltKwkgI_2"></path>
                    <g id="编组-16">
                        <path d="M199.564662,169.0012 L30.4350385,169.0012 C26.8806694,169.0012 23.99985,165.163314 23.99985,160.431302 L23.99985,33.5710982 C23.99985,28.8376578 26.8806694,25.0012 30.4350385,25.0012 L199.564662,25.0012 C203.119031,25.0012 205.99985,28.8376578 205.99985,33.5710982 L205.99985,160.431302 C205.99985,165.163314 203.119031,169.0012 199.564662,169.0012" id="Fill-13" fill="#CED7E2" class="cltKwkgI_3"></path>
                        <path d="M179.59797,176 L50.4017301,176 C47.686587,176 45.4859611,173.068281 45.4859611,169.45355 L45.4859611,72.54645 C45.4859611,68.9306275 47.686587,66 50.4017301,66 L179.59797,66 C182.313113,66 184.513739,68.9306275 184.513739,72.54645 L184.513739,169.45355 C184.513739,173.068281 182.313113,176 179.59797,176" id="Fill-13" fill="#CED7E2" filter="url(#filter-1)" class="cltKwkgI_4"></path>
                        <path d="M193.98896,162.0012 L36.0107403,162.0012 C32.6907252,162.0012 29.99985,158.536442 29.99985,154.264486 L29.99985,39.7379137 C29.99985,35.4646688 32.6907252,32.0012 36.0107403,32.0012 L193.98896,32.0012 C197.308975,32.0012 199.99985,35.4646688 199.99985,39.7379137 L199.99985,154.264486 C199.99985,158.536442 197.308975,162.0012 193.98896,162.0012" id="Fill-13" fill="#FCFFFF" class="cltKwkgI_5"></path>
                        <path d="M181.08535,46.1782 L168.01735,46.1782 C165.80835,46.1782 164.01735,44.3882 164.01735,42.1782 L164.01735,29.1112 C164.01735,26.9022 165.80835,25.1112 168.01735,25.1112 L181.08535,25.1112 C183.29435,25.1112 185.08535,26.9022 185.08535,29.1112 L185.08535,42.1782 C185.08535,44.3882 183.29435,46.1782 181.08535,46.1782" id="Fill-27" fill="#2DC8CE" class="cltKwkgI_6"></path>
                        <path d="M179.513803,48.5335 L169.588897,48.5335 C167.911202,48.5335 166.55097,47.1740278 166.55097,45.4955734 L166.55097,35.5714266 C166.55097,33.8937316 167.911202,32.5335 169.588897,32.5335 L179.513803,32.5335 C181.191498,32.5335 182.55173,33.8937316 182.55173,35.5714266 L182.55173,45.4955734 C182.55173,47.1740278 181.191498,48.5335 179.513803,48.5335" id="Fill-27" fill="#2DC8CE" opacity="0.300000012" filter="url(#filter-2)" class="cltKwkgI_7"></path>
                        <path d="M175.23385,31.9732 L177.51085,33.3522 L175.73285,35.8302 L171.95985,34.6232 L166.73585,39.7782 C166.34185,40.1662 166.33885,40.7992 166.72685,41.1922 L166.72685,41.1922 C166.92185,41.3902 167.17985,41.4902 167.43885,41.4902 L167.43885,41.4902 C167.69185,41.4902 167.94585,41.3942 168.14185,41.2022 L168.14185,41.2022 L172.50285,36.8962 L176.50985,38.1772 L179.22585,34.3912 L181.39085,35.7032 L180.75985,29.7992 L175.23385,31.9732 Z" id="Fill-29" fill="#FCFFFF" class="cltKwkgI_8"></path>
                        <path d="M186.81635,17.893 L186.00635,15.702 C184.98935,12.946 182.81735,10.774 180.06235,9.756 L177.87035,8.947 L180.06235,8.137 C182.81735,7.12 184.98935,4.948 186.00635,2.193 L186.81635,1.42108547e-14 L187.62635,2.193 C188.64335,4.948 190.81535,7.12 193.57035,8.137 L195.76235,8.947 L193.57035,9.756 C190.81535,10.774 188.64335,12.946 187.62635,15.702 L186.81635,17.893 Z" id="Fill-31" fill="#B5E0FC" class="cltKwkgI_9"></path>
                        <path d="M67.16935,196.2299 C67.16935,200.6839 63.55935,204.2939 59.10535,204.2939 C54.65135,204.2939 51.04135,200.6839 51.04135,196.2299 C51.04135,191.7769 54.65135,188.1669 59.10535,188.1669 C63.55935,188.1669 67.16935,191.7769 67.16935,196.2299 Z" id="Stroke-33" stroke="#B5E0FC" stroke-width="2" class="cltKwkgI_10"></path>
                        <path id="矩形" fill="#E3EBF3" width="4" height="29" d="M 42.99985,122.0012 L 42.99985,122.0012 A 2,2,0,0,1,44.99985,124.0012 L 44.99985,149.00119999999998 A 2,2,0,0,1,42.99985,151.00119999999998 L 42.99985,151.00119999999998 A 2,2,0,0,1,40.99985,149.00119999999998 L 40.99985,124.0012 A 2,2,0,0,1,42.99985,122.0012" class="cltKwkgI_11"></path>
                        <path id="矩形备份-10" fill="#E3EBF3" width="4" height="84" d="M 180.99985,67.0012 L 180.99985,67.0012 A 2,2,0,0,1,182.99985,69.0012 L 182.99985,149.00119999999998 A 2,2,0,0,1,180.99985,151.00119999999998 L 180.99985,151.00119999999998 A 2,2,0,0,1,178.99985,149.00119999999998 L 178.99985,69.0012 A 2,2,0,0,1,180.99985,67.0012" class="cltKwkgI_12"></path>
                        <path id="矩形备份-11" fill="#E3EBF3" width="4" height="65" d="M 165.99985,86.0012 L 165.99985,86.0012 A 2,2,0,0,1,167.99985,88.0012 L 167.99985,149.00119999999998 A 2,2,0,0,1,165.99985,151.00119999999998 L 165.99985,151.00119999999998 A 2,2,0,0,1,163.99985,149.00119999999998 L 163.99985,88.0012 A 2,2,0,0,1,165.99985,86.0012" class="cltKwkgI_13"></path>
                        <path id="矩形备份-23" fill="#E3EBF3" width="4" height="71" d="M 149.99985,80.0012 L 149.99985,80.0012 A 2,2,0,0,1,151.99985,82.0012 L 151.99985,149.00119999999998 A 2,2,0,0,1,149.99985,151.00119999999998 L 149.99985,151.00119999999998 A 2,2,0,0,1,147.99985,149.00119999999998 L 147.99985,82.0012 A 2,2,0,0,1,149.99985,80.0012" class="cltKwkgI_14"></path>
                        <path id="矩形备份-18" fill="#E3EBF3" width="4" height="54" d="M 134.99985,97.0012 L 134.99985,97.0012 A 2,2,0,0,1,136.99985,99.0012 L 136.99985,149.00119999999998 A 2,2,0,0,1,134.99985,151.00119999999998 L 134.99985,151.00119999999998 A 2,2,0,0,1,132.99985,149.00119999999998 L 132.99985,99.0012 A 2,2,0,0,1,134.99985,97.0012" class="cltKwkgI_15"></path>
                        <path id="矩形备份-19" fill="#E3EBF3" width="4" height="59" d="M 119.99985,92.0012 L 119.99985,92.0012 A 2,2,0,0,1,121.99985,94.0012 L 121.99985,149.00119999999998 A 2,2,0,0,1,119.99985,151.00119999999998 L 119.99985,151.00119999999998 A 2,2,0,0,1,117.99985,149.00119999999998 L 117.99985,94.0012 A 2,2,0,0,1,119.99985,92.0012" class="cltKwkgI_16"></path>
                        <path id="矩形备份-20" fill="#E3EBF3" width="4" height="41" d="M 103.99985,110.0012 L 103.99985,110.0012 A 2,2,0,0,1,105.99985,112.0012 L 105.99985,149.00119999999998 A 2,2,0,0,1,103.99985,151.00119999999998 L 103.99985,151.00119999999998 A 2,2,0,0,1,101.99985,149.00119999999998 L 101.99985,112.0012 A 2,2,0,0,1,103.99985,110.0012" class="cltKwkgI_17"></path>
                        <path id="矩形备份-21" fill="#E3EBF3" width="4" height="49" d="M 88.99985,102.0012 L 88.99985,102.0012 A 2,2,0,0,1,90.99985,104.0012 L 90.99985,149.00119999999998 A 2,2,0,0,1,88.99985,151.00119999999998 L 88.99985,151.00119999999998 A 2,2,0,0,1,86.99985,149.00119999999998 L 86.99985,104.0012 A 2,2,0,0,1,88.99985,102.0012" class="cltKwkgI_18"></path>
                        <path id="矩形备份-22" fill="#E3EBF3" width="4" height="33" d="M 73.99985,118.0012 L 73.99985,118.0012 A 2,2,0,0,1,75.99985,120.0012 L 75.99985,149.00119999999998 A 2,2,0,0,1,73.99985,151.00119999999998 L 73.99985,151.00119999999998 A 2,2,0,0,1,71.99985,149.00119999999998 L 71.99985,120.0012 A 2,2,0,0,1,73.99985,118.0012" class="cltKwkgI_19"></path>
                        <path id="矩形备份-24" fill="#E3EBF3" width="4" height="38" d="M 57.99985,113.0012 L 57.99985,113.0012 A 2,2,0,0,1,59.99985,115.0012 L 59.99985,149.00119999999998 A 2,2,0,0,1,57.99985,151.00119999999998 L 57.99985,151.00119999999998 A 2,2,0,0,1,55.99985,149.00119999999998 L 55.99985,115.0012 A 2,2,0,0,1,57.99985,113.0012" class="cltKwkgI_20"></path>
                        <path id="路径-12" fill="url(#linearGradient-3)" d="M40.99985,126.5012L57.99985,117.0012L73.99985,122.0012L88.99985,106.0012L103.99985,114.0012L119.99985,96.0012L134.99985,101.0012L149.99985,84.0012L165.99985,90.0012L182.99985,68.1758341L182.99985,151.0012L40.99985,151.0012Z" class="cltKwkgI_21"></path>
                        <path id="椭圆形" fill="#1B68FF" d="M38.99985,126.0012A4,4 0,1,1 46.99985,126.0012A4,4 0,1,1 38.99985,126.0012" class="cltKwkgI_22"></path>
                        <path id="椭圆形备份-104" fill="#1B68FF" d="M53.99985,117.0012A4,4 0,1,1 61.99985,117.0012A4,4 0,1,1 53.99985,117.0012" class="cltKwkgI_23"></path>
                        <path id="椭圆形备份-105" fill="#1B68FF" d="M69.99985,122.0012A4,4 0,1,1 77.99985,122.0012A4,4 0,1,1 69.99985,122.0012" class="cltKwkgI_24"></path>
                        <path id="椭圆形备份-106" fill="#1B68FF" d="M84.99985,106.0012A4,4 0,1,1 92.99985,106.0012A4,4 0,1,1 84.99985,106.0012" class="cltKwkgI_25"></path>
                        <path id="椭圆形备份-107" fill="#1B68FF" d="M99.99985,114.0012A4,4 0,1,1 107.99985,114.0012A4,4 0,1,1 99.99985,114.0012" class="cltKwkgI_26"></path>
                        <path id="椭圆形备份-108" fill="#1B68FF" d="M115.99985,96.0012A4,4 0,1,1 123.99985,96.0012A4,4 0,1,1 115.99985,96.0012" class="cltKwkgI_27"></path>
                        <path id="椭圆形备份-109" fill="#1B68FF" d="M130.99985,101.0012A4,4 0,1,1 138.99985,101.0012A4,4 0,1,1 130.99985,101.0012" class="cltKwkgI_28"></path>
                        <path id="椭圆形备份-110" fill="#1B68FF" d="M145.99985,84.0012A4,4 0,1,1 153.99985,84.0012A4,4 0,1,1 145.99985,84.0012" class="cltKwkgI_29"></path>
                        <path id="椭圆形备份-111" fill="#1B68FF" d="M161.99985,90.0012A4,4 0,1,1 169.99985,90.0012A4,4 0,1,1 161.99985,90.0012" class="cltKwkgI_30"></path>
                        <path id="椭圆形备份-112" fill="#1B68FF" d="M176.99985,71.0012A4,4 0,1,1 184.99985,71.0012A4,4 0,1,1 176.99985,71.0012" class="cltKwkgI_31"></path>
                        <path id="路径-12" stroke="#1B68FF" stroke-width="2" d="M42.99985,126.5012L57.99985,117.0012L73.99985,122.0012L88.99985,106.0012L103.99985,114.0012L119.99985,96.0012L134.99985,101.0012L149.99985,84.0012L165.99985,90.0012L180.99985,71.0012" class="cltKwkgI_32"></path>
                        <path d="M9.69525,105.5121 L5.70125,109.5061 C5.31025,109.8971 4.67725,109.8971 4.28725,109.5061 L0.29325,105.5121 C-0.09775,105.1221 -0.09775,104.4891 0.29325,104.0981 L4.28725,100.1041 C4.67725,99.7131 5.31025,99.7131 5.70125,100.1041 L9.69525,104.0981 C10.08525,104.4891 10.08525,105.1221 9.69525,105.5121" id="Fill-9" fill="#BBD9FA" class="cltKwkgI_33"></path>
                        <path d="M25.66595,127.7612 L17.92695,135.4992 C17.53695,135.8902 16.90295,135.8902 16.51295,135.4992 L8.77395,127.7612 C8.38295,127.3702 8.38295,126.7372 8.77395,126.3462 L16.51295,118.6082 C16.90295,118.2172 17.53695,118.2172 17.92695,118.6082 L25.66595,126.3462 C26.05595,126.7372 26.05595,127.3702 25.66595,127.7612" id="Fill-11" fill="#FFBBD8" class="cltKwkgI_34"></path>
                    </g>
                    <path id="椭圆形" stroke="#E6EDF5" stroke-width="4" d="M44,55.5A8.5,8.5 0,1,1 61,55.5A8.5,8.5 0,1,1 44,55.5" class="cltKwkgI_35"></path>
                    <path id="椭圆形备份-113" stroke="#E6EDF5" stroke-width="4" d="M73,55.5A8.5,8.5 0,1,1 90,55.5A8.5,8.5 0,1,1 73,55.5" class="cltKwkgI_36"></path>
                    <path id="椭圆形备份-114" stroke="#E6EDF5" stroke-width="4" d="M102,55.5A8.5,8.5 0,1,1 119,55.5A8.5,8.5 0,1,1 102,55.5" class="cltKwkgI_37"></path>
                    <path d="M115.711018,48.7841963 C114.271866,47.665895 112.463697,47 110.5,47 C105.80558,47 102,50.8055796 102,55.5 C102,60.1944204 105.80558,64 110.5,64 C115.19442,64 119,60.1944204 119,55.5" id="路径" stroke="#1A66FF" stroke-width="4" stroke-linecap="round" class="cltKwkgI_38"></path>
                    <path d="M55.3933785,47.5688975 C54.4568789,47.201476 53.4390082,47 52.3747736,47 C47.7495139,47 44,50.8055796 44,55.5 C44,60.1944204 47.7495139,64 52.3747736,64 C55.7630749,64 58.6814065,61.9577326 60,59.0198593" id="路径" stroke="#1A66FF" stroke-width="4" stroke-linecap="round" class="cltKwkgI_39"></path>
                    <path d="M73,55.5 C73,60.1944204 76.7495139,64 81.3747736,64 C83.0980037,64 84.6996733,63.4717554 86.0311639,62.5661069" id="路径" stroke="#1A66FF" stroke-width="4" stroke-linecap="round" class="cltKwkgI_40"></path>
                </g>
            </g>
        </g>
    </g>
<style data-made-with="vivus-instant">.cltKwkgI_0{stroke-dasharray:984 986;stroke-dashoffset:985;animation:cltKwkgI_draw 2960ms linear 0ms forwards;}.cltKwkgI_1{stroke-dasharray:848 850;stroke-dashoffset:849;animation:cltKwkgI_draw 2960ms linear 3ms forwards;}.cltKwkgI_2{stroke-dasharray:610 612;stroke-dashoffset:611;animation:cltKwkgI_draw 2960ms linear 7ms forwards;}.cltKwkgI_3{stroke-dasharray:640 642;stroke-dashoffset:641;animation:cltKwkgI_draw 2960ms linear 10ms forwards;}.cltKwkgI_4{stroke-dasharray:489 491;stroke-dashoffset:490;animation:cltKwkgI_draw 2960ms linear 14ms forwards;}.cltKwkgI_5{stroke-dasharray:589 591;stroke-dashoffset:590;animation:cltKwkgI_draw 2960ms linear 17ms forwards;}.cltKwkgI_6{stroke-dasharray:78 80;stroke-dashoffset:79;animation:cltKwkgI_draw 2960ms linear 21ms forwards;}.cltKwkgI_7{stroke-dasharray:59 61;stroke-dashoffset:60;animation:cltKwkgI_draw 2960ms linear 24ms forwards;}.cltKwkgI_8{stroke-dasharray:50 52;stroke-dashoffset:51;animation:cltKwkgI_draw 2960ms linear 28ms forwards;}.cltKwkgI_9{stroke-dasharray:54 56;stroke-dashoffset:55;animation:cltKwkgI_draw 2960ms linear 31ms forwards;}.cltKwkgI_10{stroke-dasharray:51 53;stroke-dashoffset:52;animation:cltKwkgI_draw 2960ms linear 35ms forwards;}.cltKwkgI_11{stroke-dasharray:63 65;stroke-dashoffset:64;animation:cltKwkgI_draw 2960ms linear 38ms forwards;}.cltKwkgI_12{stroke-dasharray:173 175;stroke-dashoffset:174;animation:cltKwkgI_draw 2960ms linear 42ms forwards;}.cltKwkgI_13{stroke-dasharray:135 137;stroke-dashoffset:136;animation:cltKwkgI_draw 2960ms linear 45ms forwards;}.cltKwkgI_14{stroke-dasharray:147 149;stroke-dashoffset:148;animation:cltKwkgI_draw 2960ms linear 49ms forwards;}.cltKwkgI_15{stroke-dasharray:113 115;stroke-dashoffset:114;animation:cltKwkgI_draw 2960ms linear 52ms forwards;}.cltKwkgI_16{stroke-dasharray:123 125;stroke-dashoffset:124;animation:cltKwkgI_draw 2960ms linear 56ms forwards;}.cltKwkgI_17{stroke-dasharray:87 89;stroke-dashoffset:88;animation:cltKwkgI_draw 2960ms linear 59ms forwards;}.cltKwkgI_18{stroke-dasharray:103 105;stroke-dashoffset:104;animation:cltKwkgI_draw 2960ms linear 63ms forwards;}.cltKwkgI_19{stroke-dasharray:71 73;stroke-dashoffset:72;animation:cltKwkgI_draw 2960ms linear 66ms forwards;}.cltKwkgI_20{stroke-dasharray:81 83;stroke-dashoffset:82;animation:cltKwkgI_draw 2960ms linear 70ms forwards;}.cltKwkgI_21{stroke-dasharray:432 434;stroke-dashoffset:433;animation:cltKwkgI_draw 2960ms linear 73ms forwards;}.cltKwkgI_22{stroke-dasharray:26 28;stroke-dashoffset:27;animation:cltKwkgI_draw 2960ms linear 77ms forwards;}.cltKwkgI_23{stroke-dasharray:26 28;stroke-dashoffset:27;animation:cltKwkgI_draw 2960ms linear 80ms forwards;}.cltKwkgI_24{stroke-dasharray:26 28;stroke-dashoffset:27;animation:cltKwkgI_draw 2960ms linear 84ms forwards;}.cltKwkgI_25{stroke-dasharray:26 28;stroke-dashoffset:27;animation:cltKwkgI_draw 2960ms linear 87ms forwards;}.cltKwkgI_26{stroke-dasharray:26 28;stroke-dashoffset:27;animation:cltKwkgI_draw 2960ms linear 91ms forwards;}.cltKwkgI_27{stroke-dasharray:26 28;stroke-dashoffset:27;animation:cltKwkgI_draw 2960ms linear 94ms forwards;}.cltKwkgI_28{stroke-dasharray:26 28;stroke-dashoffset:27;animation:cltKwkgI_draw 2960ms linear 98ms forwards;}.cltKwkgI_29{stroke-dasharray:26 28;stroke-dashoffset:27;animation:cltKwkgI_draw 2960ms linear 101ms forwards;}.cltKwkgI_30{stroke-dasharray:26 28;stroke-dashoffset:27;animation:cltKwkgI_draw 2960ms linear 105ms forwards;}.cltKwkgI_31{stroke-dasharray:26 28;stroke-dashoffset:27;animation:cltKwkgI_draw 2960ms linear 108ms forwards;}.cltKwkgI_32{stroke-dasharray:178 180;stroke-dashoffset:179;animation:cltKwkgI_draw 2960ms linear 112ms forwards;}.cltKwkgI_33{stroke-dasharray:29 31;stroke-dashoffset:30;animation:cltKwkgI_draw 2960ms linear 115ms forwards;}.cltKwkgI_34{stroke-dasharray:51 53;stroke-dashoffset:52;animation:cltKwkgI_draw 2960ms linear 119ms forwards;}.cltKwkgI_35{stroke-dasharray:54 56;stroke-dashoffset:55;animation:cltKwkgI_draw 2960ms linear 122ms forwards;}.cltKwkgI_36{stroke-dasharray:54 56;stroke-dashoffset:55;animation:cltKwkgI_draw 2960ms linear 126ms forwards;}.cltKwkgI_37{stroke-dasharray:54 56;stroke-dashoffset:55;animation:cltKwkgI_draw 2960ms linear 129ms forwards;}.cltKwkgI_38{stroke-dasharray:46 48;stroke-dashoffset:47;animation:cltKwkgI_draw 2960ms linear 133ms forwards;}.cltKwkgI_39{stroke-dasharray:40 42;stroke-dashoffset:41;animation:cltKwkgI_draw 2960ms linear 136ms forwards;}.cltKwkgI_40{stroke-dasharray:19 21;stroke-dashoffset:20;animation:cltKwkgI_draw 2960ms linear 140ms forwards;}@keyframes cltKwkgI_draw{100%{stroke-dashoffset:0;}}@keyframes cltKwkgI_fade{0%{stroke-opacity:1;}94.52054794520548%{stroke-opacity:1;}100%{stroke-opacity:0;}}</style></svg>