<svg xmlns="http://www.w3.org/2000/svg" viewBox="0 0 332.3 300.8" style=""><defs><style>.a{fill:#dadada;opacity:0.23;}.b{fill:#fff;}.c,.e,.f,.h,.i,.k{fill:none;stroke-miterlimit:10;stroke-width:1.4px;}.c{stroke:#7f95ff;}.d,.j{fill:#7f95ff;}.d{opacity:0.37;}.e{stroke:#4e4f57;}.f,.h,.i{stroke:#0a0b1f;}.f,.g{opacity:0.45;}.i{stroke-dasharray:5.41 5.41;}.k{stroke:#fa0;opacity:0.57;}.l{fill:#fa0;}</style></defs><title>数据统计框</title><path class="a aDzGaImv_0" d="M287.7,73.8c-11.8-7.5-30.5-15-36.6-15.7C192.4,50.8,12.1,59.6,29,213.2,43.7,347.5,220.8,362.6,308,355.8c48.8-3.9,68.2-65.9,37.1-106.9l-1.8-2.3c-11.2-14.4-27.3-43.3-24.6-61.8C323.1,154.3,348.9,112.6,287.7,73.8Z" transform="translate(-27.8 -56.3)"></path><path class="b aDzGaImv_1" d="M309.4,284.1H106.6c-6.6,0-12-4.1-12-9.2V166c0-5.1,5.4-9.2,12-9.2H308.4c6.6,0,12,4.1,12,9.2l1,108.9C321.4,280,316,284.1,309.4,284.1Z" transform="translate(-27.8 -56.3)"></path><path class="c aDzGaImv_2" d="M196.5,161.4H301.8c6.6,0,12,4.1,12,9.2l1,108.9c0,5.1-5.4,9.2-12,9.2H113.4" transform="translate(-27.8 -56.3)"></path><path class="c aDzGaImv_3" d="M88,260.6v-90c0-5.1,5.4-9.2,12-9.2h69.5" transform="translate(-27.8 -56.3)"></path><path class="d aDzGaImv_4" width="14.2" height="14.16" d="M 157.9,150.4 L 168.1,150.4 A 2,2,0,0,1,170.1,152.4 L 170.1,162.56 A 2,2,0,0,1,168.1,164.56 L 157.9,164.56 A 2,2,0,0,1,155.9,162.56 L 155.9,152.4 A 2,2,0,0,1,157.9,150.4"></path><path class="e aDzGaImv_5" width="16.3" height="16.28" d="M 152,144.8 L 164.3,144.8 A 2,2,0,0,1,166.3,146.8 L 166.3,159.08 A 2,2,0,0,1,164.3,161.08 L 152,161.08 A 2,2,0,0,1,150,159.08 L 150,146.8 A 2,2,0,0,1,152,144.8"></path><path class="f aDzGaImv_6" d="M181.9,147.8L224.8,147.8"></path><path class="f aDzGaImv_7" d="M182.1,159.4L214.8,159.4"></path><path class="d aDzGaImv_8" width="14.2" height="14.16" d="M 157.9,184.8 L 168.1,184.8 A 2,2,0,0,1,170.1,186.8 L 170.1,196.96 A 2,2,0,0,1,168.1,198.96 L 157.9,198.96 A 2,2,0,0,1,155.9,196.96 L 155.9,186.8 A 2,2,0,0,1,157.9,184.8"></path><path class="e aDzGaImv_9" width="16.3" height="16.28" d="M 152,179.1 L 164.3,179.1 A 2,2,0,0,1,166.3,181.1 L 166.3,193.38 A 2,2,0,0,1,164.3,195.38 L 152,195.38 A 2,2,0,0,1,150,193.38 L 150,181.1 A 2,2,0,0,1,152,179.1"></path><g class="g"><path class="h aDzGaImv_10" d="M181.9,182.1L184.4,182.1"></path><path class="i aDzGaImv_11" d="M189.8,182.1L219.6,182.1"></path><path class="h aDzGaImv_12" d="M222.3,182.1L224.8,182.1"></path></g><path class="f aDzGaImv_13" d="M182.1,193.8L214.8,193.8"></path><path class="d aDzGaImv_14" d="M149.6,228.1A18.1,18.1,0,1,1,131.5,210v18.1Z" transform="translate(-27.8 -56.3)"></path><path class="j aDzGaImv_15" d="M151.6,224c0-9-6.9-16.3-15.3-16.3V224Z" transform="translate(-27.8 -56.3)"></path><path class="j aDzGaImv_16" d="M53.7,161.5l35.9-60.4A8,8,0,0,1,94,97.4a6.7,6.7,0,0,1,4.8.2,6.5,6.5,0,0,1,3.6,3.5l18.3,39.2s2,3.2,5.3,0,9.8-18.2,11.7-22.4a3.9,3.9,0,0,1,2.5-2.2,3.8,3.8,0,0,1,3.6,1.2c2.9,2.9,31.4,44.6,31.4,44.6Z" transform="translate(-27.8 -56.3)"></path><path class="c aDzGaImv_17" d="M116.6,115.8l.6,1.3,12.1,26s2,3.3,5.3,0,9.8-18.2,11.7-22.4a4.2,4.2,0,0,1,2.5-2.2,3.8,3.8,0,0,1,3.6,1.2c2.9,2.9,31.5,42,31.5,42H62.3l35.9-57.8a7.8,7.8,0,0,1,4.4-3.6,6.9,6.9,0,0,1,4.9.1,7.4,7.4,0,0,1,3.5,3.5l1.6,3.4" transform="translate(-27.8 -56.3)"></path><path class="k aDzGaImv_18" d="M97.9,34.2A7.3,7.3 0,1,1 112.5,34.2A7.3,7.3 0,1,1 97.9,34.2"></path><path class="l aDzGaImv_19" d="M92.7,32.4A7.3,7.3 0,1,1 107.3,32.4A7.3,7.3 0,1,1 92.7,32.4"></path><style data-made-with="vivus-instant">.aDzGaImv_0{stroke-dasharray:1039 1041;stroke-dashoffset:1040;animation:aDzGaImv_draw_0 7200ms linear 0ms infinite,aDzGaImv_fade 7200ms linear 0ms infinite;}.aDzGaImv_1{stroke-dasharray:690 692;stroke-dashoffset:691;animation:aDzGaImv_draw_1 7200ms linear 0ms infinite,aDzGaImv_fade 7200ms linear 0ms infinite;}.aDzGaImv_2{stroke-dasharray:438 440;stroke-dashoffset:439;animation:aDzGaImv_draw_2 7200ms linear 0ms infinite,aDzGaImv_fade 7200ms linear 0ms infinite;}.aDzGaImv_3{stroke-dasharray:177 179;stroke-dashoffset:178;animation:aDzGaImv_draw_3 7200ms linear 0ms infinite,aDzGaImv_fade 7200ms linear 0ms infinite;}.aDzGaImv_4{stroke-dasharray:54 56;stroke-dashoffset:55;animation:aDzGaImv_draw_4 7200ms linear 0ms infinite,aDzGaImv_fade 7200ms linear 0ms infinite;}.aDzGaImv_5{stroke-dasharray:62 64;stroke-dashoffset:63;animation:aDzGaImv_draw_5 7200ms linear 0ms infinite,aDzGaImv_fade 7200ms linear 0ms infinite;}.aDzGaImv_6{stroke-dasharray:43 45;stroke-dashoffset:44;animation:aDzGaImv_draw_6 7200ms linear 0ms infinite,aDzGaImv_fade 7200ms linear 0ms infinite;}.aDzGaImv_7{stroke-dasharray:33 35;stroke-dashoffset:34;animation:aDzGaImv_draw_7 7200ms linear 0ms infinite,aDzGaImv_fade 7200ms linear 0ms infinite;}.aDzGaImv_8{stroke-dasharray:54 56;stroke-dashoffset:55;animation:aDzGaImv_draw_8 7200ms linear 0ms infinite,aDzGaImv_fade 7200ms linear 0ms infinite;}.aDzGaImv_9{stroke-dasharray:62 64;stroke-dashoffset:63;animation:aDzGaImv_draw_9 7200ms linear 0ms infinite,aDzGaImv_fade 7200ms linear 0ms infinite;}.aDzGaImv_10{stroke-dasharray:3 5;stroke-dashoffset:4;animation:aDzGaImv_draw_10 7200ms linear 0ms infinite,aDzGaImv_fade 7200ms linear 0ms infinite;}.aDzGaImv_11{stroke-dasharray:30 32;stroke-dashoffset:31;animation:aDzGaImv_draw_11 7200ms linear 0ms infinite,aDzGaImv_fade 7200ms linear 0ms infinite;}.aDzGaImv_12{stroke-dasharray:3 5;stroke-dashoffset:4;animation:aDzGaImv_draw_12 7200ms linear 0ms infinite,aDzGaImv_fade 7200ms linear 0ms infinite;}.aDzGaImv_13{stroke-dasharray:33 35;stroke-dashoffset:34;animation:aDzGaImv_draw_13 7200ms linear 0ms infinite,aDzGaImv_fade 7200ms linear 0ms infinite;}.aDzGaImv_14{stroke-dasharray:122 124;stroke-dashoffset:123;animation:aDzGaImv_draw_14 7200ms linear 0ms infinite,aDzGaImv_fade 7200ms linear 0ms infinite;}.aDzGaImv_15{stroke-dasharray:57 59;stroke-dashoffset:58;animation:aDzGaImv_draw_15 7200ms linear 0ms infinite,aDzGaImv_fade 7200ms linear 0ms infinite;}.aDzGaImv_16{stroke-dasharray:345 347;stroke-dashoffset:346;animation:aDzGaImv_draw_16 7200ms linear 0ms infinite,aDzGaImv_fade 7200ms linear 0ms infinite;}.aDzGaImv_17{stroke-dasharray:331 333;stroke-dashoffset:332;animation:aDzGaImv_draw_17 7200ms linear 0ms infinite,aDzGaImv_fade 7200ms linear 0ms infinite;}.aDzGaImv_18{stroke-dasharray:46 48;stroke-dashoffset:47;animation:aDzGaImv_draw_18 7200ms linear 0ms infinite,aDzGaImv_fade 7200ms linear 0ms infinite;}.aDzGaImv_19{stroke-dasharray:46 48;stroke-dashoffset:47;animation:aDzGaImv_draw_19 7200ms linear 0ms infinite,aDzGaImv_fade 7200ms linear 0ms infinite;}@keyframes aDzGaImv_draw{100%{stroke-dashoffset:0;}}@keyframes aDzGaImv_fade{0%{stroke-opacity:1;}94.44444444444444%{stroke-opacity:1;}100%{stroke-opacity:0;}}@keyframes aDzGaImv_draw_0{11.11111111111111%{stroke-dashoffset: 1040}38.88888888888889%{ stroke-dashoffset: 0;}100%{ stroke-dashoffset: 0;}}@keyframes aDzGaImv_draw_1{11.842105263157896%{stroke-dashoffset: 691}39.61988304093567%{ stroke-dashoffset: 0;}100%{ stroke-dashoffset: 0;}}@keyframes aDzGaImv_draw_2{12.573099415204677%{stroke-dashoffset: 439}40.35087719298245%{ stroke-dashoffset: 0;}100%{ stroke-dashoffset: 0;}}@keyframes aDzGaImv_draw_3{13.30409356725146%{stroke-dashoffset: 178}41.081871345029235%{ stroke-dashoffset: 0;}100%{ stroke-dashoffset: 0;}}@keyframes aDzGaImv_draw_4{14.035087719298245%{stroke-dashoffset: 55}41.812865497076025%{ stroke-dashoffset: 0;}100%{ stroke-dashoffset: 0;}}@keyframes aDzGaImv_draw_5{14.76608187134503%{stroke-dashoffset: 63}42.54385964912281%{ stroke-dashoffset: 0;}100%{ stroke-dashoffset: 0;}}@keyframes aDzGaImv_draw_6{15.497076023391813%{stroke-dashoffset: 44}43.27485380116959%{ stroke-dashoffset: 0;}100%{ stroke-dashoffset: 0;}}@keyframes aDzGaImv_draw_7{16.228070175438596%{stroke-dashoffset: 34}44.005847953216374%{ stroke-dashoffset: 0;}100%{ stroke-dashoffset: 0;}}@keyframes aDzGaImv_draw_8{16.95906432748538%{stroke-dashoffset: 55}44.73684210526316%{ stroke-dashoffset: 0;}100%{ stroke-dashoffset: 0;}}@keyframes aDzGaImv_draw_9{17.690058479532166%{stroke-dashoffset: 63}45.46783625730994%{ stroke-dashoffset: 0;}100%{ stroke-dashoffset: 0;}}@keyframes aDzGaImv_draw_10{18.421052631578945%{stroke-dashoffset: 4}46.198830409356724%{ stroke-dashoffset: 0;}100%{ stroke-dashoffset: 0;}}@keyframes aDzGaImv_draw_11{19.152046783625728%{stroke-dashoffset: 31}46.92982456140351%{ stroke-dashoffset: 0;}100%{ stroke-dashoffset: 0;}}@keyframes aDzGaImv_draw_12{19.883040935672515%{stroke-dashoffset: 4}47.66081871345029%{ stroke-dashoffset: 0;}100%{ stroke-dashoffset: 0;}}@keyframes aDzGaImv_draw_13{20.6140350877193%{stroke-dashoffset: 34}48.39181286549708%{ stroke-dashoffset: 0;}100%{ stroke-dashoffset: 0;}}@keyframes aDzGaImv_draw_14{21.345029239766085%{stroke-dashoffset: 123}49.12280701754386%{ stroke-dashoffset: 0;}100%{ stroke-dashoffset: 0;}}@keyframes aDzGaImv_draw_15{22.076023391812864%{stroke-dashoffset: 58}49.853801169590646%{ stroke-dashoffset: 0;}100%{ stroke-dashoffset: 0;}}@keyframes aDzGaImv_draw_16{22.807017543859647%{stroke-dashoffset: 346}50.58479532163742%{ stroke-dashoffset: 0;}100%{ stroke-dashoffset: 0;}}@keyframes aDzGaImv_draw_17{23.538011695906434%{stroke-dashoffset: 332}51.31578947368421%{ stroke-dashoffset: 0;}100%{ stroke-dashoffset: 0;}}@keyframes aDzGaImv_draw_18{24.269005847953217%{stroke-dashoffset: 47}52.046783625730995%{ stroke-dashoffset: 0;}100%{ stroke-dashoffset: 0;}}@keyframes aDzGaImv_draw_19{25%{stroke-dashoffset: 47}52.77777777777778%{ stroke-dashoffset: 0;}100%{ stroke-dashoffset: 0;}}</style></svg>